# xmcd
# Track frame offsets:
# 150
# 13338
# 29439
# 44091
# 60832
# 76508
# 90498
# 104028
# 118484
# 134171
# 149821
# 163836
#
# Disc length: 2656 seconds
# Revision: 0
# Processed by: cddbd v1.5.2PL0 Copyright (c) Steve Scherf et al.
# Submitted via: VisiTrax 2.11.1.266 - For more info visit www.synapsa.com
#
DISCID=b30a5e0c
DTITLE=TatYana Storm - Voor Altijd
DYEAR=2010
DGENRE=Vlaams
TTITLE0=TatYana Storm - Nooit Meer Dezelfde
TTITLE1=TatYana Storm - Ik Geloof In Jou En Mij
TTITLE2=TatYana Storm - Mijn Liefde Voor Jou
TTITLE3=TatYana Storm and Roel Vanderstukken - Als Je Ooit
TTITLE4=TatYana Storm - Mijn Man Van Goud
TTITLE5=TatYana Storm - Alleen Bij Jou
TTITLE6=TatYana Storm - De Storm Raast Door
TTITLE7=TatYana Storm and Bram Van Outryve (Fosco) - Mijlenver
TTITLE8=TatYana Storm - Zomaar Voorbij
TTITLE9=TatYana Storm - Alle Dagen Door
TTITLE10=TatYana Storm - Ik Weet Dat Jij Er Bent
TTITLE11=TatYana Storm - Voor Altijd and ghost track
EXTD=
EXTT0=
EXTT1=
EXTT2=
EXTT3=
EXTT4=
EXTT5=
EXTT6=
EXTT7=
EXTT8=
EXTT9=
EXTT10=
EXTT11=
PLAYORDER=
